<svg xmlns="http://www.w3.org/2000/svg" xmlns:xlink="http://www.w3.org/1999/xlink" fill="none" version="1.1" width="200" height="200" viewBox="0 0 200 200"><defs><clipPath id="master_svg0_6_1873"><rect x="0" y="0" width="200" height="200" rx="0"/></clipPath><clipPath id="master_svg1_6_2103"><rect x="19" y="50" width="162" height="125" rx="18"/></clipPath><clipPath id="master_svg2_6_2125"><rect x="60" y="73" width="80" height="80" rx="0"/></clipPath></defs><g clip-path="url(#master_svg0_6_1873)"><g><path d="M168.7562255859375,50L137.4999755859375,50L137.4999755859375,43.75C137.4883455859375,33.3994789,129.1005055859375,25.011621475,118.7499775859375,25L81.2499775859375,25C70.8994525859375,25.011619568,62.5115965859375,33.399475100000004,62.4999775859375,43.75L62.4999775859375,50L31.2562255859375,50C24.3558787859375,50.007751,18.7639751434375,55.599655,18.7562255859375,62.5L18.7562255859375,162.5C18.7639827728375,169.40034,24.3558826859375,174.99225,31.2562255859375,175L168.7562255859375,175C175.6565655859375,174.99225,181.2484755859375,169.40034,181.2562255859375,162.5L181.2562255859375,62.5C181.2484855859375,55.599655,175.6565855859375,50.007751,168.7562255859375,50ZM74.9999775859375,43.75C75.0042805859375,40.300003000000004,77.7999805859375,37.504303,81.2499775859375,37.5L118.7499775859375,37.5C122.1999755859375,37.504303,124.9956755859375,40.300003000000004,124.9999755859375,43.75L124.9999755859375,50L74.9999775859375,50L74.9999775859375,43.75Z" fill="#42B883" fill-opacity="1" style="mix-blend-mode:passthrough"/></g><g clip-path="url(#master_svg1_6_2103)"><g clip-path="url(#master_svg2_6_2125)"><g><path d="M100,79.25C81.360389,79.25000038146976,66.25,94.360389,66.25,113C66.25,131.639614,81.360389,146.75,100,146.75C118.639614,146.75,133.75,131.639614,133.75,113C133.72933999999998,94.368956,118.631054,79.270661546,100,79.25ZM100,139.25C85.502523,139.25,73.7499976,127.497478,73.7499976,112.99999600000001C73.7499957,98.502523,85.502522,86.7499976,99.99999600000001,86.7499976C114.497478,86.7499957,126.25,98.502522,126.25,113C126.234497,127.491055,114.491055,139.234497,100,139.25ZM116.25,113C116.249554,119.993347,111.774868,126.202068,105.14067800000001,128.41441C98.506493,130.626751,91.200924,128.346462,87.00312600000001,122.753124C85.685423,121.10075,85.992804,118.686424,87.68251000000001,117.416939C89.372219,116.147457,91.776672,116.52437599999999,92.996878,118.25C96.092276,122.377205,102.06823700000001,122.94421,105.884605,119.472805C109.70097,116.00139999999999,109.70097,109.998602,105.884605,106.527197C102.06823700000001,103.055792,96.092276,103.622801,92.996878,107.75C91.776669,109.475607,89.372229,109.852507,87.682531,108.583035C85.99284,107.313559,85.685446,104.899252,87.00312600000001,103.246878C91.200926,97.653542,98.506496,95.373251,105.140682,97.58559199999999C111.774868,99.797932,116.249554,106.006653,116.25,113Z" fill="#2F9E6D" fill-opacity="1" style="mix-blend-mode:passthrough"/></g></g></g></g></svg>